<svg width="26" height="26" viewBox="0 0 26 26" fill="none" xmlns="http://www.w3.org/2000/svg">
<path d="M13.85 21.6007H6C2.6916 21.6007 0 18.9091 0 15.6007V6.00073C0 2.69233 2.6916 0.000732422 6 0.000732422H19.6C22.9084 0.000732422 25.6 2.69233 25.6 6.00073V7.80073C25.5472 9.12753 23.6523 9.12653 23.6 7.80073V6.00073C23.6 3.79513 21.8056 2.00073 19.6 2.00073H6C3.7944 2.00073 2 3.79513 2 6.00073V15.6007C2 17.8063 3.7944 19.6007 6 19.6007H13.85C15.1768 19.6536 15.1758 21.5484 13.85 21.6007ZM14.2 10.5007C14.2 9.94843 13.7523 9.50073 13.2 9.50073H6C4.6732 9.55353 4.6742 11.4484 6 11.5007H13.2C13.7523 11.5007 14.2 11.053 14.2 10.5007ZM11.55 14.5007C11.55 13.9484 11.1023 13.5007 10.55 13.5007H6C4.6732 13.5535 4.6742 15.4484 6 15.5007H10.55C11.1023 15.5007 11.55 15.053 11.55 14.5007ZM21.7053 19.5899L21.9001 19.2966L22.2453 19.3663C22.8797 19.4941 23.5315 19.2974 23.9891 18.8399C24.4467 18.3823 24.6434 17.7304 24.5154 17.0961L24.4458 16.751L24.7391 16.5562C25.8796 15.8215 25.8794 14.08 24.7391 13.3456L24.4458 13.1507L24.5154 12.8056C24.6434 12.1713 24.4467 11.5194 23.989 11.0618C23.5315 10.6042 22.8795 10.4075 22.2452 10.5354L21.9001 10.6051L21.7053 10.3118C21.7053 10.3118 21.7053 10.3118 21.7053 10.3118C20.9705 9.17128 19.2292 9.17158 18.4946 10.3118L18.2999 10.6051L17.9547 10.5354C17.3203 10.4075 16.6684 10.6042 16.2109 11.0618C15.7533 11.5194 15.5566 12.1713 15.6845 12.8057L15.7542 13.1508L15.4609 13.3456C14.3204 14.0803 14.3206 15.8217 15.4609 16.5562L15.7542 16.751L15.6845 17.0961C15.5565 17.7305 15.7533 18.3824 16.2109 18.8399C16.6685 19.2975 17.3203 19.4941 17.9546 19.3663L18.2999 19.2967L18.4946 19.59C18.8527 20.129 19.4528 20.4508 20.0999 20.4508C20.747 20.4508 21.3472 20.1289 21.7053 19.5899ZM17.9524 17.3264L17.6667 17.384L17.7243 17.0983C17.8799 16.327 17.5569 15.5473 16.9016 15.112L16.6588 14.9507L16.9016 14.7894C17.5569 14.3541 17.8799 13.5744 17.7243 12.803L17.6667 12.5174L17.9524 12.575C18.7237 12.7306 19.5035 12.4076 19.9388 11.7522L20.1 11.5095L20.2613 11.7522C20.6966 12.4076 21.4763 12.7306 22.2477 12.575L22.5333 12.5174L22.4757 12.8031C22.3201 13.5744 22.6431 14.3541 23.2985 14.7894L23.5413 14.9507L23.2985 15.1119C22.6431 15.5473 22.3201 16.327 22.4757 17.0983L22.5333 17.384L22.2477 17.3264C21.4761 17.1709 20.6966 17.4938 20.2613 18.1492L20.1 18.392L19.9388 18.1493C19.576 17.6031 18.9743 17.2878 18.3375 17.2878C18.21 17.2878 18.0811 17.3005 17.9524 17.3264ZM20.6 6.50073C20.6 5.94843 20.1523 5.50073 19.6 5.50073H6C4.6732 5.55353 4.6742 7.44838 6 7.50073H19.6C20.1523 7.50073 20.6 7.05303 20.6 6.50073ZM22.5197 25.459C23.1456 25.1883 23.55 24.5728 23.55 23.8909V22.0007C23.4972 20.6739 21.6024 20.6749 21.55 22.0007V23.2247L20.7285 22.466C20.3454 22.1122 19.7547 22.1122 19.3715 22.466L18.55 23.2248V22.0008C18.4972 20.674 16.6024 20.675 16.55 22.0008V23.8909C16.55 24.5729 16.9544 25.1884 17.5803 25.459C18.2046 25.729 18.9278 25.6035 19.4246 25.1395L20.05 24.5619L20.6755 25.1395C20.9983 25.441 21.4167 25.5996 21.8415 25.5996C22.0703 25.5996 22.3011 25.5535 22.5197 25.459Z" fill="#449AA7"/>
</svg>
