<svg width="26" height="26" viewBox="0 0 26 26" fill="none" xmlns="http://www.w3.org/2000/svg">
<path d="M23.179 15.4286L23.179 15.4286C23.0274 15.0531 22.5999 14.8717 22.2242 15.0236C21.8489 15.1754 21.6675 15.6028 21.8194 15.9784L21.8194 15.9784L22.9969 18.8917L23.243 19.5005L22.6421 19.2356L19.1443 17.6938L19.1442 17.6938C18.9586 17.6119 18.7474 17.6106 18.5608 17.6902L18.5608 17.6902C17.3314 18.2146 16.0151 18.4801 14.6499 18.4801C9.15394 18.4801 5.43321 14.1741 5.43321 10.1068C5.43321 5.46523 9.59308 1.73333 14.6499 1.73333C19.7067 1.73333 23.8665 5.46523 23.8665 10.1068C23.8665 10.4698 23.833 10.9006 23.7746 11.2917C23.7148 11.6924 23.9912 12.0656 24.3916 12.1253C24.7922 12.185 25.1655 11.9087 25.2252 11.5081C25.2949 11.0406 25.3332 10.5421 25.3332 10.1068C25.3332 7.46857 24.2169 4.99003 22.1806 3.12641L22.1806 3.12639C20.1678 1.28405 17.4945 0.266667 14.6499 0.266667C11.8052 0.266667 9.13199 1.28405 7.11918 3.12639L7.11918 3.1264C5.29927 4.79207 4.21543 6.94883 4.00511 9.27035L3.99355 9.3979L3.88677 9.46862C1.60842 10.9775 0.266546 13.3879 0.266546 15.9762C0.266546 17.5946 0.77588 19.1304 1.74839 20.4542L1.83646 20.5741L1.7807 20.7121L0.319957 24.3251M23.179 15.4286L0.319957 24.3251M23.179 15.4286L25.2796 20.6251C25.3915 20.9019 25.3246 21.2187 25.1102 21.4265C24.9705 21.5618 24.7865 21.6333 24.5997 21.6333C24.4996 21.6333 24.3993 21.613 24.3042 21.5711L24.3041 21.571L18.9391 19.206L18.8388 19.1618L18.7363 19.2009C18.0784 19.4523 17.4005 19.6405 16.707 19.7651L16.5887 19.7863L16.5263 19.889C15.823 21.0457 14.8183 22.0277 13.5942 22.7432C12.228 23.5419 10.6485 23.9698 9.02188 23.9822L9.01331 23.9822L9.00476 23.9828L9.00257 23.983C8.97612 23.9849 8.96279 23.9859 8.94988 23.9859C7.82509 23.9859 6.73672 23.7917 5.70775 23.4087L5.60626 23.3709L5.50716 23.4146L1.29564 25.271L1.29554 25.2711C1.2005 25.313 1.09994 25.3333 1.00007 25.3333C0.813189 25.3333 0.629045 25.2618 0.489446 25.1265M23.179 15.4286L0.489446 25.1265M0.319957 24.3251C0.208114 24.6018 0.275103 24.9187 0.489446 25.1265M0.319957 24.3251L0.489446 25.1265M8.95058 22.5167C10.9883 22.5165 12.917 21.7207 14.2688 20.3902L14.7034 19.9625L14.0942 19.9338C11.3861 19.8065 8.88251 18.7498 6.99144 16.9297C5.47112 15.4666 4.46631 13.6067 4.11061 11.6679L4.02027 11.1755L3.66205 11.5252C2.43807 12.7199 1.73321 14.3014 1.73321 15.9762C1.73321 17.4386 2.25544 18.8214 3.23639 19.9722C3.41378 20.1804 3.46069 20.4696 3.35831 20.7229C3.35831 20.7229 3.35831 20.7229 3.35831 20.7229L2.60285 22.5917L2.35669 23.2006L2.95765 22.9356L5.29939 21.9032C5.48504 21.8214 5.69631 21.8201 5.88292 21.8998L5.88294 21.8998C6.83439 22.3057 7.8524 22.5134 8.90812 22.5186L8.90812 22.5189L8.92103 22.5184L8.93624 22.5175L8.94182 22.5172L8.94605 22.5169C8.94877 22.5167 8.95013 22.5167 8.95058 22.5167ZM8.95058 22.5167C8.95034 22.5167 8.95011 22.5167 8.94988 22.5167C8.95042 22.5167 8.95075 22.5167 8.95075 22.5167C8.95075 22.5167 8.9507 22.5167 8.95058 22.5167ZM16.0999 11.3167C16.5049 11.3167 16.8332 11.6449 16.8332 12.05C16.8332 12.4551 16.5049 12.7833 16.0999 12.7833H10.0999C9.69481 12.7833 9.36655 12.4551 9.36655 12.05C9.36655 11.6449 9.69481 11.3167 10.0999 11.3167H16.0999ZM19.0999 8.78333H10.0999C9.69481 8.78333 9.36655 8.45507 9.36655 8.05C9.36655 7.64493 9.69481 7.31667 10.0999 7.31667H19.0999C19.5049 7.31667 19.8332 7.64493 19.8332 8.05C19.8332 8.45507 19.5049 8.78333 19.0999 8.78333Z" fill="#449AA7" stroke="#449AA7" stroke-width="0.533333"/>
</svg>
