<svg width="20" height="21" viewBox="0 0 20 21" fill="none" xmlns="http://www.w3.org/2000/svg">
<path d="M1.66666 3H6.66666C7.55071 3 8.39856 3.35119 9.02368 3.97631C9.6488 4.60143 9.99999 5.44928 9.99999 6.33333V18C9.99999 17.337 9.7366 16.7011 9.26776 16.2322C8.79892 15.7634 8.16303 15.5 7.49999 15.5H1.66666V3Z" stroke="#024E28" stroke-width="2" stroke-linecap="round" stroke-linejoin="round"/>
<path d="M18.3333 3H13.3333C12.4493 3 11.6014 3.35119 10.9763 3.97631C10.3512 4.60143 10 5.44928 10 6.33333V18C10 17.337 10.2634 16.7011 10.7322 16.2322C11.2011 15.7634 11.837 15.5 12.5 15.5H18.3333V3Z" stroke="#024E28" stroke-width="2" stroke-linecap="round" stroke-linejoin="round"/>
</svg>
