<svg width="20" height="21" viewBox="0 0 20 21" fill="none" xmlns="http://www.w3.org/2000/svg">
<path d="M9.99999 16.3333C13.2217 16.3333 15.8333 13.7216 15.8333 10.5C15.8333 7.2783 13.2217 4.66663 9.99999 4.66663C6.77833 4.66663 4.16666 7.2783 4.16666 10.5C4.16666 13.7216 6.77833 16.3333 9.99999 16.3333Z" stroke="#024E28" stroke-width="2" stroke-linecap="round" stroke-linejoin="round"/>
<path d="M10 8V10.5L11.25 11.75" stroke="#024E28" stroke-width="2" stroke-linecap="round" stroke-linejoin="round"/>
<path d="M13.7583 14.9584L13.4667 18.1501C13.4291 18.5656 13.2371 18.9519 12.9285 19.2327C12.6199 19.5136 12.2172 19.6684 11.8 19.6667H8.19167C7.77444 19.6684 7.37176 19.5136 7.06317 19.2327C6.75459 18.9519 6.56255 18.5656 6.525 18.1501L6.23334 14.9584M6.24167 6.04172L6.53334 2.85005C6.57076 2.43595 6.76161 2.05079 7.06843 1.77018C7.37525 1.48957 7.77588 1.33378 8.19167 1.33339H11.8167C12.2339 1.33169 12.6366 1.48655 12.9452 1.76737C13.2538 2.04818 13.4458 2.43452 13.4833 2.85005L13.775 6.04172" stroke="#024E28" stroke-width="2" stroke-linecap="round" stroke-linejoin="round"/>
</svg>
